# xmcd
#
# Track frame offsets: 
#        150
#        13537
#        26850
#        43387
#        58762
#        76512
#        93225
#        109537
#        125962
#        146925
#        163350
#
# Disc length: 2567 seconds
#
# Revision: 13
# Processed by: cddbd v1.5.2PL0 Copyright (c) Steve Scherf et al.
# Submitted via: ExactAudioCopy v0.95b4
#
DISCID=9a0a050b
DTITLE=Brooks and Dunn - Hard Workin' Man
DYEAR=1993
DGENRE=Country
TTITLE0=Hard Workin' Man
TTITLE1=We'll Burn That Bridge
TTITLE2=Mexican Minutes
TTITLE3=Heartbroke Out Of My Mind
TTITLE4=She Used To Be Mine
TTITLE5=Rock My World (Little Country Girl)
TTITLE6=That Ain't No Way To Go
TTITLE7=Texas Women (Don't Stay Lonely Long)
TTITLE8=Our Time Is Coming
TTITLE9=I Can't Put Out This Fire
TTITLE10=Boot Scootin' Boogie  (Club Mix)
EXTD=YEAR: 1993
EXTT0=
EXTT1=
EXTT2=
EXTT3=
EXTT4=
EXTT5=
EXTT6=
EXTT7=
EXTT8=
EXTT9=
EXTT10=
PLAYORDER=
